<svg xmlns="http://www.w3.org/2000/svg" viewBox="0 0 64.5 76.5" fill="#fff" fill-rule="evenodd" stroke="#000" stroke-linecap="round" stroke-linejoin="round" width="300" height="300" font-family="Roboto" font-size="14px" text-anchor="middle" xmlns:xlink="undefined"><defs xmlns="http://www.w3.org/1999/xhtml"><style type="text/css"></style></defs><use xmlns:ns1="http://www.w3.org/1999/xlink" ns1:href="#A" x="6.25" y="6.25"/><symbol id="A" overflow="visible"><g stroke="none" fill-rule="nonzero"><path d="M45.5 64H6.1C2.737 63.986.014 61.263 0 57.9V6.1C.014 2.737 2.737.014 6.1 0h39.4c3.363.014 6.086 2.737 6.1 6.1v51.8c-.014 3.363-2.737 6.086-6.1 6.1z" fill="#6762a6"/><path d="M32.35 55.188V29.776s1.65-6.088-20.375 2.5C11.95 32.5 11.95 8.75 11.95 8.75L19 8.713v15s20-7.938 20 6v25.325h-6.937zm4.1-37.325h-7.5c2.75-3.375 5.25-9.125 5.25-9.125h7.875s-1.35 3.75-5.5 9.125zM12.075 55.126v-14.45l7.25 7.25-7.25 7.25z"/></g></symbol></svg>